<?xml version="1.0" encoding="utf-8"?>
<!DOCTYPE svg PUBLIC "-//W3C//DTD SVG 1.1//EN" "http://www.w3.org/Graphics/SVG/1.1/DTD/svg11.dtd">
<svg version="1.1" id="Layer_1" xmlns="http://www.w3.org/2000/svg" xmlns:xlink="http://www.w3.org/1999/xlink" x="0px" y="0px"
	 width="139px" height="46px" viewBox="0 0 139 46" enable-background="new 0 0 139 46" xml:space="preserve">
<g>
	<path fill="#FFFFFF" d="M43.587,23.497v6.121c0,2.864,0.179,3.651,2.146,3.651c0.834,0,2.653-0.131,2.653-0.131l0.119,1.708
		c0,0-1.967,0.289-3.01,0.289c-3.071,0-4.144-1.025-4.144-4.808v-6.831l-3.095-0.007v-1.784l3.095,0.004v-4.02h2.236v4.02h4.71
		v1.787H43.587z"/>
	<path fill="#FFFFFF" d="M62.248,33.086l0.06,1.602c0,0-3.368,0.421-5.783,0.421c-4.471,0-5.932-2.286-5.932-6.752
		c0-4.991,2.474-6.909,6.26-6.909c3.935,0,5.992,1.839,5.992,6.147l-0.12,1.524h-9.866c0.03,2.758,0.983,4.203,3.935,4.203
		C59.028,33.322,62.248,33.086,62.248,33.086z M60.608,27.517c0-3.153-1.162-4.309-3.756-4.309c-2.563,0-3.994,1.235-3.994,4.309
		H60.608z"/>
	<path fill="#FFFFFF" d="M77.212,33.086l0.06,1.602c0,0-3.369,0.421-5.783,0.421c-4.471,0-5.932-2.286-5.932-6.752
		c0-4.991,2.474-6.909,6.26-6.909c3.935,0,5.991,1.839,5.991,6.147l-0.119,1.524h-9.866c0.03,2.758,0.983,4.203,3.935,4.203
		C73.993,33.322,77.212,33.086,77.212,33.086z M75.573,27.517c0-3.153-1.163-4.309-3.756-4.309c-2.563,0-3.994,1.235-3.994,4.309
		H75.573z"/>
	<path fill="#FFFFFF" d="M90.746,21.842l-0.06,1.707c0,0-2.384-0.236-3.517-0.236c-3.428,0-4.353,1.261-4.353,4.729
		c0,3.835,0.686,5.228,4.353,5.228c1.133,0,3.547-0.236,3.547-0.236l0.089,1.708c0,0-2.802,0.368-4.144,0.368
		c-4.77,0-6.14-1.918-6.14-7.067c0-4.755,1.729-6.594,6.17-6.594C88.062,21.448,90.746,21.842,90.746,21.842z"/>
	<path fill="#FFFFFF" d="M94.501,34.846V15.983h2.236v6.358c0,0,2.503-0.894,4.591-0.894c4.113,0,5.038,1.787,5.038,6.542v6.857
		h-2.236v-6.831c0-3.468-0.447-4.755-3.13-4.755c-1.998,0-4.263,0.762-4.263,0.762v10.824H94.501z"/>
	<path fill="#FFFFFF" d="M115.485,16.457h2.206v2.285h-2.206V16.457z M115.485,21.71h2.206v13.136h-2.206V21.71z"/>
	<path fill="#FFFFFF" d="M134.206,28.147c0,4.545-1.312,6.962-6.349,6.962s-6.409-2.207-6.409-7.015
		c0-4.519,1.699-6.646,6.409-6.646C132.357,21.448,134.206,23.655,134.206,28.147z M131.911,28.147c0-3.494-1.193-4.913-4.054-4.913
		c-3.16,0-4.114,1.261-4.114,4.86c0,3.678,0.596,5.254,4.114,5.254S131.911,31.615,131.911,28.147z"/>
	<rect x="110.11" y="32.561" fill="#FFFFFF" width="2.206" height="2.285"/>
</g>
<g>
	<g>
		<path fill="#FFFFFF" d="M23.319,30.404c0,0.821-0.665,1.486-1.486,1.486l0,0c-0.82,0-1.486-0.666-1.486-1.486v-8.495
			c0-0.821,0.666-1.486,1.486-1.486l0,0c0.821,0,1.486,0.665,1.486,1.486V30.404z"/>
		<path fill="#FFFFFF" d="M19.029,31.615c0,0.624-0.666,1.129-1.486,1.129l0,0c-0.821,0-1.486-0.505-1.486-1.129v-6.46
			c0-0.624,0.665-1.129,1.486-1.129l0,0c0.82,0,1.486,0.505,1.486,1.129V31.615z"/>
		<path fill="#FFFFFF" d="M14.739,28.077c0,0.624-0.665,1.13-1.486,1.13l0,0c-0.82,0-1.485-0.506-1.485-1.13v-6.459
			c0-0.624,0.665-1.129,1.485-1.129l0,0c0.821,0,1.486,0.506,1.486,1.129V28.077z"/>
	</g>
	<path fill="#FFFFFF" d="M17.543,12.057c-7.549,0-13.669,6.12-13.669,13.669c0,4.703,2.375,8.85,5.991,11.309l0.601-2.307
		l-0.601-0.613c-2.271-2.079-3.695-5.068-3.695-8.389c0-6.281,5.092-11.373,11.373-11.373s11.374,5.092,11.374,11.373
		s-5.092,11.373-11.374,11.373c-0.412,0-0.819-0.023-1.22-0.066l-2.368,1.883c1.144,0.311,2.346,0.479,3.588,0.479
		c7.549,0,13.669-6.12,13.669-13.669C31.212,18.177,25.092,12.057,17.543,12.057z"/>
	<polygon fill="#FFFFFF" points="13.955,38.916 9.847,41.17 9.847,37.059 	"/>
</g>
<rect x="31.756" y="5.557" fill="none" width="13" height="13"/>
<text transform="matrix(1 0 0 1 31.7563 14.0767)" fill="#FFCE00" font-family="'MyriadPro-Regular'" font-size="12">β</text>
</svg>
