<?xml version="1.0" encoding="utf-8"?>
<!DOCTYPE svg PUBLIC "-//W3C//DTD SVG 1.1//EN" "http://www.w3.org/Graphics/SVG/1.1/DTD/svg11.dtd">
<svg version="1.1" xmlns="http://www.w3.org/2000/svg" xmlns:xlink="http://www.w3.org/1999/xlink" x="0px" y="0px" width="624px"
	 height="500px" viewBox="0 0 624 500" enable-background="new 0 0 624 500" xml:space="preserve">
<g id="Layer_2">
	<g>
		<path fill="#F3F4F6" d="M540,457.5c0,6.627-5.373,12-12,12H100c-6.627,0-12-5.373-12-12v-415c0-6.627,5.373-12,12-12h428
			c6.627,0,12,5.373,12,12V457.5z"/>
		<path fill="#E6E9EE" d="M88,457.5c0,6.627,5.373,12,12,12h428c6.627,0,12-5.373,12-12V70H88V457.5z"/>
	</g>
</g>
<g id="Layer_3">
	<path fill="#E26659" d="M118,51c0,3.313-2.687,6-6,6l0,0c-3.313,0-6-2.687-6-6l0,0c0-3.313,2.687-6,6-6l0,0
		C115.313,45,118,47.687,118,51L118,51z"/>
	<path fill="#E09A5A" d="M141.5,51c0,3.313-2.687,6-6,6l0,0c-3.313,0-6-2.687-6-6l0,0c0-3.313,2.687-6,6-6l0,0
		C138.813,45,141.5,47.687,141.5,51L141.5,51z"/>
	<path fill="#B1DD5B" d="M165,51c0,3.313-2.687,6-6,6l0,0c-3.313,0-6-2.687-6-6l0,0c0-3.313,2.687-6,6-6l0,0
		C162.313,45,165,47.687,165,51L165,51z"/>
</g>
<g id="Layer_4">
	<rect x="112" y="170" fill="#FFFFFF" width="402" height="269"/>
	<path fill="#D4D8E1" d="M383,139c0,2.209-1.791,4-4,4H116c-2.209,0-4-1.791-4-4v-2c0-2.209,1.791-4,4-4h263c2.209,0,4,1.791,4,4
		V139z"/>
	<path fill="#D4D8E1" d="M325,115c0,2.209-1.791,4-4,4H116c-2.209,0-4-1.791-4-4v-2c0-2.209,1.791-4,4-4h205c2.209,0,4,1.791,4,4
		V115z"/>
	<path fill="#D4D8E1" d="M447,205c0,2.209-1.791,4-4,4H133.5c-2.209,0-4-1.791-4-4v-1c0-2.209,1.791-4,4-4H443c2.209,0,4,1.791,4,4
		V205z"/>
	<circle fill="#1FBBA6" cx="471" cy="205" r="7"/>
	<g id="Picture">
		<g>
			<path fill="#D4D8E1" d="M353.199,269.75h-82.398c-4.716,0-8.551,4.008-8.551,8.939v81.621c0,4.928,3.835,8.939,8.551,8.939
				h82.398c4.716,0,8.551-4.012,8.551-8.939v-81.621C361.75,273.758,357.915,269.75,353.199,269.75z M355.531,360.311
				c0,1.5-1.045,2.721-2.332,2.721h-82.398c-1.287,0-2.332-1.221-2.332-2.721v-81.621c0-1.5,1.045-2.721,2.332-2.721h82.398
				c1.287,0,2.332,1.221,2.332,2.721V360.311z M299.562,294.625c-6.859,0-12.438,5.581-12.438,12.438
				c0,6.859,5.578,12.438,12.438,12.438S312,313.922,312,307.062C312,300.206,306.422,294.625,299.562,294.625z M299.562,313.281
				c-3.428,0-6.219-2.787-6.219-6.219s2.791-6.219,6.219-6.219s6.219,2.787,6.219,6.219S302.99,313.281,299.562,313.281z
				 M346.203,282.188h-68.406c-1.719,0-3.109,1.394-3.109,3.109v62.188c0,1.719,1.391,3.109,3.109,3.109h68.406
				c1.719,0,3.109-1.391,3.109-3.109v-62.188C349.312,283.581,347.922,282.188,346.203,282.188z M284.016,344.375
				c-0.525,0-0.996-0.164-1.43-0.392l12.112-12.109c1.214-1.212,3.183-1.212,4.396,0l12.505,12.501H284.016z M343.094,341.266
				c0,1.713-1.394,3.109-3.109,3.109h-19.592l-10.64-10.64l16.439-16.434c1.215-1.212,3.183-1.212,4.397,0l12.504,12.498V341.266z
				 M343.094,321.009l-8.107-8.107c-3.638-3.632-9.553-3.634-13.19,0.003l-16.439,16.434l-1.864-1.864
				c-3.639-3.628-9.553-3.635-13.191,0l-9.395,9.396v-45.354c0-1.716,1.394-3.109,3.109-3.109h55.969
				c1.716,0,3.109,1.394,3.109,3.109V321.009z"/>
		</g>
	</g>
</g>
</svg>
