<?xml version="1.0" encoding="utf-8"?>
<!DOCTYPE svg PUBLIC "-//W3C//DTD SVG 1.1//EN" "http://www.w3.org/Graphics/SVG/1.1/DTD/svg11.dtd">
<svg version="1.1" xmlns="http://www.w3.org/2000/svg" xmlns:xlink="http://www.w3.org/1999/xlink" x="0px" y="0px" width="624px"
	 height="500px" viewBox="0 0 624 500" enable-background="new 0 0 624 500" xml:space="preserve">
<g id="Layer_2">
	<g>
		<path fill="#F3F4F6" d="M540,457.5c0,6.627-5.373,12-12,12H100c-6.627,0-12-5.373-12-12v-415c0-6.627,5.373-12,12-12h428
			c6.627,0,12,5.373,12,12V457.5z"/>
		<path fill="#E6E9EE" d="M88,457.5c0,6.627,5.373,12,12,12h428c6.627,0,12-5.373,12-12V70H88V457.5z"/>
	</g>
</g>
<g id="Layer_3">
	<path fill="#E26659" d="M118,51c0,3.313-2.687,6-6,6l0,0c-3.313,0-6-2.687-6-6l0,0c0-3.313,2.687-6,6-6l0,0
		C115.313,45,118,47.687,118,51L118,51z"/>
	<path fill="#E09A5A" d="M141.5,51c0,3.313-2.687,6-6,6l0,0c-3.313,0-6-2.687-6-6l0,0c0-3.313,2.687-6,6-6l0,0
		C138.813,45,141.5,47.687,141.5,51L141.5,51z"/>
	<path fill="#B1DD5B" d="M165,51c0,3.313-2.687,6-6,6l0,0c-3.313,0-6-2.687-6-6l0,0c0-3.313,2.687-6,6-6l0,0
		C162.313,45,165,47.687,165,51L165,51z"/>
</g>
<g id="Layer_4">
	<polygon fill="#188F7F" points="514,125.75 514,125.75 464,125.75 464,125.75 464,105.25 464,105.25 514,105.25 514,105.25 	"/>
	<polygon fill="#1FBBA6" points="514,123.75 514,123.75 464,123.75 464,123.75 464,103.25 464,103.25 514,103.25 514,103.25 	"/>
	<g>
		<rect x="112" y="185.562" fill="#FFFFFF" width="104" height="79.014"/>
		<rect x="112" y="248.822" fill="#D4D8E1" width="104" height="15.87"/>
		<path fill="#D4D8E1" d="M204,205.062c0,1.381-1.119,2.5-2.5,2.5h-74c-1.381,0-2.5-1.119-2.5-2.5l0,0c0-1.381,1.119-2.5,2.5-2.5h74
			C202.881,202.562,204,203.681,204,205.062L204,205.062z"/>
		<path fill="#D4D8E1" d="M184,217.188c0,1.38-0.896,2.5-2,2.5h-55c-1.104,0-2-1.12-2-2.5l0,0c0-1.381,0.896-2.5,2-2.5h55
			C183.104,214.688,184,215.808,184,217.188L184,217.188z"/>
		<path fill="#D4D8E1" d="M198,229.315c0,1.381-1.006,2.5-2.246,2.5h-68.507c-1.241,0-2.247-1.119-2.247-2.5l0,0
			c0-1.381,1.006-2.5,2.247-2.5h68.507C196.994,226.815,198,227.934,198,229.315L198,229.315z"/>
	</g>
	<path fill="#D4D8E1" d="M308,114.625c0,2.209-1.791,4-4,4H116c-2.209,0-4-1.791-4-4v-2.25c0-2.209,1.791-4,4-4h188
		c2.209,0,4,1.791,4,4V114.625z"/>
	<g>
		<rect x="261" y="185.562" fill="#FFFFFF" width="104" height="79.015"/>
		<rect x="261" y="248.822" fill="#D4D8E1" width="104" height="15.871"/>
		<path fill="#D4D8E1" d="M353,205.062c0,1.381-1.119,2.5-2.5,2.5h-74c-1.381,0-2.5-1.119-2.5-2.5l0,0c0-1.381,1.119-2.5,2.5-2.5h74
			C351.881,202.562,353,203.681,353,205.062L353,205.062z"/>
		<path fill="#D4D8E1" d="M333,217.188c0,1.38-0.896,2.5-2,2.5h-55c-1.104,0-2-1.12-2-2.5l0,0c0-1.381,0.896-2.5,2-2.5h55
			C332.104,214.688,333,215.808,333,217.188L333,217.188z"/>
		<path fill="#D4D8E1" d="M347,229.315c0,1.381-1.006,2.5-2.246,2.5h-68.508c-1.24,0-2.246-1.119-2.246-2.5l0,0
			c0-1.381,1.006-2.5,2.246-2.5h68.508C345.994,226.815,347,227.935,347,229.315L347,229.315z"/>
	</g>
	<g>
		<rect x="410" y="185.562" fill="#FFFFFF" width="104" height="79.014"/>
		<rect x="410" y="248.822" fill="#D4D8E1" width="104" height="15.87"/>
		<path fill="#D4D8E1" d="M502,205.062c0,1.381-1.119,2.5-2.5,2.5h-74c-1.381,0-2.5-1.119-2.5-2.5l0,0c0-1.381,1.119-2.5,2.5-2.5h74
			C500.881,202.562,502,203.681,502,205.062L502,205.062z"/>
		<path fill="#D4D8E1" d="M482,217.188c0,1.38-0.896,2.5-2,2.5h-55c-1.104,0-2-1.12-2-2.5l0,0c0-1.381,0.896-2.5,2-2.5h55
			C481.104,214.688,482,215.808,482,217.188L482,217.188z"/>
		<path fill="#D4D8E1" d="M496,229.315c0,1.381-1.006,2.5-2.246,2.5h-68.508c-1.24,0-2.246-1.119-2.246-2.5l0,0
			c0-1.381,1.006-2.5,2.246-2.5h68.508C494.994,226.815,496,227.935,496,229.315L496,229.315z"/>
	</g>
	<g>
		<rect x="112" y="293.503" fill="#FFFFFF" width="104" height="79.014"/>
		<rect x="112" y="356.764" fill="#D4D8E1" width="104" height="15.87"/>
		<path fill="#D4D8E1" d="M204,313.003c0,1.381-1.119,2.5-2.5,2.5h-74c-1.381,0-2.5-1.119-2.5-2.5l0,0c0-1.381,1.119-2.5,2.5-2.5h74
			C202.881,310.503,204,311.622,204,313.003L204,313.003z"/>
		<path fill="#D4D8E1" d="M184,325.13c0,1.38-0.896,2.5-2,2.5h-55c-1.104,0-2-1.12-2-2.5l0,0c0-1.381,0.896-2.5,2-2.5h55
			C183.104,322.63,184,323.749,184,325.13L184,325.13z"/>
		<path fill="#D4D8E1" d="M198,337.256c0,1.381-1.006,2.5-2.246,2.5h-68.507c-1.241,0-2.247-1.119-2.247-2.5l0,0
			c0-1.381,1.006-2.5,2.247-2.5h68.507C196.994,334.756,198,335.875,198,337.256L198,337.256z"/>
	</g>
	<g>
		<rect x="262" y="293.502" fill="#C5C9D1" width="104" height="79.015"/>
		<rect x="267" y="288.503" fill="#FFFFFF" stroke="#1FBBB0" stroke-width="4" width="104" height="79.015"/>
		<rect x="269" y="349.646" fill="#D4D8E1" width="100" height="15.871"/>
		<path fill="#D4D8E1" d="M359,308.003c0,1.381-1.119,2.5-2.5,2.5h-74c-1.381,0-2.5-1.119-2.5-2.5l0,0c0-1.381,1.119-2.5,2.5-2.5h74
			C357.881,305.503,359,306.622,359,308.003L359,308.003z"/>
		<path fill="#D4D8E1" d="M339,320.13c0,1.38-0.896,2.5-2,2.5h-55c-1.104,0-2-1.12-2-2.5l0,0c0-1.381,0.896-2.5,2-2.5h55
			C338.104,317.63,339,318.749,339,320.13L339,320.13z"/>
		<path fill="#D4D8E1" d="M353,332.257c0,1.381-1.006,2.5-2.246,2.5h-68.508c-1.24,0-2.246-1.119-2.246-2.5l0,0
			c0-1.381,1.006-2.5,2.246-2.5h68.508C351.994,329.757,353,330.876,353,332.257L353,332.257z"/>
	</g>
</g>
</svg>
