<?xml version="1.0" encoding="utf-8"?>
<!DOCTYPE svg PUBLIC "-//W3C//DTD SVG 1.1//EN" "http://www.w3.org/Graphics/SVG/1.1/DTD/svg11.dtd">
<svg version="1.1" xmlns="http://www.w3.org/2000/svg" xmlns:xlink="http://www.w3.org/1999/xlink" x="0px" y="0px" width="624px"
	 height="500px" viewBox="0 0 624 500" enable-background="new 0 0 624 500" xml:space="preserve">
<g id="Layer_2">
	<g>
		<path fill="#F3F4F6" d="M540,457.5c0,6.627-5.373,12-12,12H100c-6.627,0-12-5.373-12-12v-415c0-6.627,5.373-12,12-12h428
			c6.627,0,12,5.373,12,12V457.5z"/>
		<path fill="#E6E9EE" d="M88,457.5c0,6.627,5.373,12,12,12h428c6.627,0,12-5.373,12-12V70H88V457.5z"/>
	</g>
</g>
<g id="Layer_3">
	<path fill="#E26659" d="M118,51c0,3.313-2.687,6-6,6l0,0c-3.313,0-6-2.687-6-6l0,0c0-3.313,2.687-6,6-6l0,0
		C115.313,45,118,47.687,118,51L118,51z"/>
	<path fill="#E09A5A" d="M141.5,51c0,3.313-2.687,6-6,6l0,0c-3.313,0-6-2.687-6-6l0,0c0-3.313,2.687-6,6-6l0,0
		C138.813,45,141.5,47.687,141.5,51L141.5,51z"/>
	<path fill="#B1DD5B" d="M165,51c0,3.313-2.687,6-6,6l0,0c-3.313,0-6-2.687-6-6l0,0c0-3.313,2.687-6,6-6l0,0
		C162.313,45,165,47.687,165,51L165,51z"/>
</g>
<g id="Layer_4">
	<path fill="#D4D8E1" d="M325,115c0,2.209-1.791,4-4,4H116c-2.209,0-4-1.791-4-4v-2c0-2.209,1.791-4,4-4h205c2.209,0,4,1.791,4,4
		V115z"/>
	<circle fill="#1FBBA6" cx="507" cy="114" r="7"/>
	<path fill="#1FBBA6" d="M483,115c0,2.209-1.791,4-4,4H347c-2.209,0-4-1.791-4-4v-2c0-2.209,1.791-4,4-4h132c2.209,0,4,1.791,4,4
		V115z"/>
	<g>
		<path fill="#FFFFFF" d="M515,217c0,2.209-1.791,4-4,4H117c-2.209,0-4-1.791-4-4v-41c0-2.209,1.791-4,4-4h394c2.209,0,4,1.791,4,4
			V217z"/>
		<path fill="#D4D8E1" d="M489.75,195.5c0,2.209-1.791,4-4,4h-309.5c-2.209,0-4-1.791-4-4v-1c0-2.209,1.791-4,4-4h309.5
			c2.209,0,4,1.791,4,4V195.5z"/>
		<path fill="#D4D8E1" d="M150,202.5c0,2.209-1.791,4-4,4h-15c-2.209,0-4-1.791-4-4v-15c0-2.209,1.791-4,4-4h15c2.209,0,4,1.791,4,4
			V202.5z"/>
	</g>
	<g>
		<path fill="#FFFFFF" d="M515,279.667c0,2.209-1.791,4-4,4H117c-2.209,0-4-1.791-4-4v-41c0-2.209,1.791-4,4-4h394
			c2.209,0,4,1.791,4,4V279.667z"/>
		<path fill="#D4D8E1" d="M489.75,258.166c0,2.209-1.791,4-4,4h-309.5c-2.209,0-4-1.791-4-4v-1c0-2.209,1.791-4,4-4h309.5
			c2.209,0,4,1.791,4,4V258.166z"/>
		<path fill="#D4D8E1" d="M150,265.166c0,2.209-1.791,4-4,4h-15c-2.209,0-4-1.791-4-4v-15c0-2.208,1.791-4,4-4h15
			c2.209,0,4,1.791,4,4V265.166z"/>
	</g>
	<g>
		<path fill="#FFFFFF" d="M515,342.333c0,2.209-1.791,4-4,4H117c-2.209,0-4-1.791-4-4v-41c0-2.209,1.791-4,4-4h394
			c2.209,0,4,1.791,4,4V342.333z"/>
		<path fill="#D4D8E1" d="M489.75,320.833c0,2.209-1.791,4-4,4h-309.5c-2.209,0-4-1.791-4-4v-1c0-2.209,1.791-4,4-4h309.5
			c2.209,0,4,1.791,4,4V320.833z"/>
		<path fill="#D4D8E1" d="M150,327.833c0,2.209-1.791,4-4,4h-15c-2.209,0-4-1.791-4-4v-15c0-2.209,1.791-4,4-4h15
			c2.209,0,4,1.791,4,4V327.833z"/>
	</g>
	<g>
		<path fill="#FFFFFF" d="M515,405c0,2.209-1.791,4-4,4H117c-2.209,0-4-1.791-4-4v-41c0-2.209,1.791-4,4-4h394c2.209,0,4,1.791,4,4
			V405z"/>
		<path fill="#D4D8E1" d="M489.75,383.5c0,2.209-1.791,4-4,4h-309.5c-2.209,0-4-1.791-4-4v-1c0-2.209,1.791-4,4-4h309.5
			c2.209,0,4,1.791,4,4V383.5z"/>
		<path fill="#D4D8E1" d="M150,390.5c0,2.209-1.791,4-4,4h-15c-2.209,0-4-1.791-4-4v-15c0-2.209,1.791-4,4-4h15c2.209,0,4,1.791,4,4
			V390.5z"/>
	</g>
</g>
</svg>
