<?xml version="1.0" encoding="utf-8"?>
<!DOCTYPE svg PUBLIC "-//W3C//DTD SVG 1.1//EN" "http://www.w3.org/Graphics/SVG/1.1/DTD/svg11.dtd">
<svg version="1.1" xmlns="http://www.w3.org/2000/svg" xmlns:xlink="http://www.w3.org/1999/xlink" x="0px" y="0px" width="624px"
	 height="500px" viewBox="0 0 624 500" enable-background="new 0 0 624 500" xml:space="preserve">
<g id="Layer_2">
	<g>
		<g id="Cloud_x5F_Rain">
			<g>
				<path fill="#1F9B83" d="M341.017,65.653c-11.979,0-23.547,3.612-33.352,10.31c-6.251-13.255-19.773-22.185-34.93-22.185
					c-21.279,0-38.594,17.314-38.594,38.594c0,4.105,0.661,8.176,1.937,12.055c-15.418,6.303-25.687,21.239-25.687,38.414
					c0,22.915,18.647,41.562,41.562,41.562h89.062c32.737,0,59.375-26.632,59.375-59.375S373.754,65.653,341.017,65.653z"/>
			</g>
		</g>
		<g id="Cloud_x5F_Rain_2_">
			<g>
				
					<linearGradient id="SVGID_1_" gradientUnits="userSpaceOnUse" x1="284.5859" y1="202.1592" x2="348.1593" y2="92.0468" gradientTransform="matrix(1 0 0 1 -6.6084 -3.5)">
					<stop  offset="0" style="stop-color:#1FBBA6"/>
					<stop  offset="0.1502" style="stop-color:#2CBBA6"/>
					<stop  offset="0.714" style="stop-color:#59BBA6"/>
					<stop  offset="0.9989" style="stop-color:#6ABBA6"/>
				</linearGradient>
				<path fill="url(#SVGID_1_)" d="M348.017,72.653c-11.979,0-23.547,3.612-33.352,10.31c-6.251-13.255-19.773-22.185-34.93-22.185
					c-21.279,0-38.594,17.314-38.594,38.594c0,4.105,0.661,8.176,1.937,12.055c-15.418,6.303-25.687,21.239-25.687,38.414
					c0,22.915,18.647,41.562,41.562,41.562h89.062c32.737,0,59.375-26.632,59.375-59.375S380.754,72.653,348.017,72.653z"/>
			</g>
		</g>
	</g>
	<g>
		<g>
			<path fill="#FFFFFF" stroke="#F7FCFB" stroke-width="0.75" stroke-miterlimit="10" d="M289.15,130.531v6.121
				c0,2.864,0.179,3.651,2.146,3.651c0.834,0,2.654-0.131,2.654-0.131l0.118,1.707c0,0-1.967,0.289-3.01,0.289
				c-3.071,0-4.144-1.025-4.144-4.808v-6.831l-3.096-0.007v-1.784l3.096,0.004v-4.02h2.235v4.02h4.71v1.787L289.15,130.531
				L289.15,130.531z"/>
			<path fill="#FFFFFF" stroke="#F7FCFB" stroke-width="0.75" stroke-miterlimit="10" d="M307.812,140.12l0.061,1.602
				c0,0-3.369,0.422-5.783,0.422c-4.471,0-5.933-2.286-5.933-6.752c0-4.991,2.474-6.909,6.261-6.909
				c3.935,0,5.992,1.839,5.992,6.146l-0.121,1.524h-9.865c0.029,2.758,0.982,4.203,3.935,4.203
				C304.591,140.356,307.812,140.12,307.812,140.12z M306.171,134.551c0-3.153-1.162-4.31-3.756-4.31
				c-2.562,0-3.994,1.235-3.994,4.31H306.171z"/>
			<path fill="#FFFFFF" stroke="#F7FCFB" stroke-width="0.75" stroke-miterlimit="10" d="M322.775,140.12l0.06,1.602
				c0,0-3.369,0.422-5.783,0.422c-4.471,0-5.932-2.286-5.932-6.752c0-4.991,2.475-6.909,6.26-6.909c3.936,0,5.992,1.839,5.992,6.146
				l-0.119,1.524h-9.866c0.03,2.758,0.983,4.203,3.935,4.203C319.557,140.356,322.775,140.12,322.775,140.12z M321.137,134.551
				c0-3.153-1.163-4.31-3.757-4.31c-2.562,0-3.993,1.235-3.993,4.31H321.137z"/>
			<path fill="#FFFFFF" stroke="#F7FCFB" stroke-width="0.75" stroke-miterlimit="10" d="M336.31,128.875l-0.061,1.707
				c0,0-2.384-0.236-3.517-0.236c-3.428,0-4.353,1.261-4.353,4.729c0,3.835,0.686,5.228,4.353,5.228
				c1.133,0,3.547-0.235,3.547-0.235l0.089,1.708c0,0-2.802,0.367-4.144,0.367c-4.771,0-6.14-1.918-6.14-7.066
				c0-4.755,1.729-6.594,6.17-6.594C333.626,128.482,336.31,128.875,336.31,128.875z"/>
			<path fill="#FFFFFF" stroke="#F7FCFB" stroke-width="0.75" stroke-miterlimit="10" d="M340.064,141.879v-18.863h2.235v6.358
				c0,0,2.504-0.894,4.592-0.894c4.113,0,5.038,1.787,5.038,6.542v6.856h-2.236v-6.83c0-3.469-0.446-4.756-3.13-4.756
				c-1.998,0-4.264,0.762-4.264,0.762v10.824H340.064z"/>
			<path fill="#FFFFFF" stroke="#F7FCFB" stroke-width="0.75" stroke-miterlimit="10" d="M361.048,123.491h2.207v2.285h-2.207
				V123.491z M361.048,128.744h2.207v13.136h-2.207V128.744z"/>
			<path fill="#FFFFFF" stroke="#F7FCFB" stroke-width="0.75" stroke-miterlimit="10" d="M379.77,135.18
				c0,4.545-1.312,6.963-6.349,6.963s-6.409-2.207-6.409-7.016c0-4.519,1.698-6.646,6.409-6.646
				C377.921,128.482,379.77,130.689,379.77,135.18z M377.475,135.18c0-3.494-1.193-4.913-4.054-4.913
				c-3.16,0-4.114,1.261-4.114,4.86c0,3.678,0.596,5.254,4.114,5.254C376.938,140.381,377.475,138.649,377.475,135.18z"/>
			
				<rect x="355.673" y="139.594" fill="#FFFFFF" stroke="#F7FCFB" stroke-width="0.75" stroke-miterlimit="10" width="2.207" height="2.285"/>
		</g>
		<g>
			<g>
				<path fill="#FFFFFF" stroke="#F7FCFB" stroke-width="0.75" stroke-miterlimit="10" d="M268.882,137.438
					c0,0.82-0.664,1.486-1.485,1.486l0,0c-0.819,0-1.485-0.666-1.485-1.486v-8.495c0-0.821,0.666-1.486,1.485-1.486l0,0
					c0.821,0,1.485,0.665,1.485,1.486V137.438z"/>
				<path fill="#FFFFFF" stroke="#F7FCFB" stroke-width="0.75" stroke-miterlimit="10" d="M264.593,138.649
					c0,0.624-0.666,1.129-1.486,1.129l0,0c-0.82,0-1.486-0.505-1.486-1.129v-6.46c0-0.624,0.666-1.13,1.486-1.13l0,0
					c0.82,0,1.486,0.506,1.486,1.13V138.649z"/>
				<path fill="#FFFFFF" stroke="#F7FCFB" stroke-width="0.75" stroke-miterlimit="10" d="M260.302,135.111
					c0,0.624-0.664,1.13-1.485,1.13l0,0c-0.819,0-1.485-0.506-1.485-1.13v-6.459c0-0.624,0.666-1.129,1.485-1.129l0,0
					c0.821,0,1.485,0.506,1.485,1.129V135.111z"/>
			</g>
			<path fill="#FFFFFF" stroke="#F7FCFB" stroke-width="0.75" stroke-miterlimit="10" d="M263.106,119.091
				c-7.549,0-13.669,6.12-13.669,13.669c0,4.703,2.375,8.85,5.991,11.309l0.601-2.307l-0.601-0.613
				c-2.271-2.079-3.695-5.068-3.695-8.389c0-6.282,5.092-11.374,11.373-11.374s11.374,5.092,11.374,11.374
				c0,6.28-5.092,11.373-11.374,11.373c-0.412,0-0.818-0.023-1.22-0.066l-2.368,1.883c1.145,0.311,2.346,0.479,3.588,0.479
				c7.549,0,13.669-6.119,13.669-13.668C276.775,125.21,270.655,119.091,263.106,119.091z"/>
			<polygon fill="#FFFFFF" stroke="#F7FCFB" stroke-width="0.75" stroke-miterlimit="10" points="259.519,145.95 255.411,148.204 
				255.411,144.092 			"/>
		</g>
	</g>
	<g id="Smartphone">
		<g>
			<path fill="#CCCCCC" d="M430.955,349.266h-23.978c-2.509,0-4.548,2.133-4.548,4.754v43.408c0,2.621,2.039,4.755,4.548,4.755
				h23.978c2.508,0,4.548-2.134,4.548-4.755V354.02C435.503,351.398,433.463,349.266,430.955,349.266z M432.195,397.428
				c0,0.799-0.557,1.447-1.24,1.447h-23.978c-0.684,0-1.24-0.648-1.24-1.447v-6.821h26.458V397.428z M432.195,387.3h-26.458v-24.805
				h26.458V387.3z M432.195,359.188h-26.458v-5.168c0-0.798,0.557-1.446,1.24-1.446h23.978c0.684,0,1.24,0.648,1.24,1.446V359.188z
				 M418.966,397.222c1.371,0,2.48-1.111,2.48-2.48c0-1.37-1.109-2.48-2.48-2.48s-2.48,1.11-2.48,2.48
				C416.485,396.11,417.595,397.222,418.966,397.222z M422.273,354.227h-6.614c-0.914,0-1.654,0.739-1.654,1.653
				s0.74,1.654,1.654,1.654h6.614c0.914,0,1.653-0.74,1.653-1.654S423.188,354.227,422.273,354.227z"/>
		</g>
	</g>
	<g id="Desktop">
		<g>
			<path fill="#CCCCCC" d="M248.369,425.469h-6.312c-3.486,0-6.312-2.826-6.312-6.312v-9.469h-18.938v9.469
				c0,3.486-2.826,6.312-6.312,6.312h-6.312c-1.744,0-3.156,1.415-3.156,3.156c0,1.744,1.412,3.156,3.156,3.156h44.188
				c1.744,0,3.156-1.412,3.156-3.156C251.525,426.884,250.113,425.469,248.369,425.469z M271.252,330.781h-89.953
				c-3.049,0-5.523,2.65-5.523,5.918v60.758c0,3.268,2.475,5.918,5.523,5.918h89.953c3.049,0,5.523-2.65,5.523-5.918v-60.758
				C276.775,333.432,274.301,330.781,271.252,330.781z M270.463,397.062h-88.375v-59.969h88.375V397.062z"/>
		</g>
	</g>
	<path fill="none" stroke="#CCCCCC" stroke-width="7" stroke-miterlimit="10" stroke-dasharray="4" d="M226.275,311
		c0,0-8.225-22,25.25-53s37.418-53,37.418-53"/>
	<path fill="none" stroke="#CCCCCC" stroke-width="7" stroke-miterlimit="10" stroke-dasharray="4" d="M331.227,210
		c0,0,20.312,42,48.543,55s39.196,68.781,39.196,68.781"/>
</g>
<g id="Layer_3">
</g>
<g id="Layer_4">
</g>
</svg>
